<?xml version="1.0" encoding="utf-8"?>
<!-- Generator: Adobe Illustrator 16.0.3, SVG Export Plug-In . SVG Version: 6.00 Build 0)  -->
<!DOCTYPE svg PUBLIC "-//W3C//DTD SVG 1.1//EN" "http://www.w3.org/Graphics/SVG/1.1/DTD/svg11.dtd">
<svg version="1.1" id="Ebene_1" xmlns="http://www.w3.org/2000/svg" xmlns:xlink="http://www.w3.org/1999/xlink" x="0px" y="0px"
	 width="4000px" height="4000px" viewBox="0 0 4000 4000" enable-background="new 0 0 4000 4000" xml:space="preserve">
<g>
	<path fill-rule="evenodd" clip-rule="evenodd" d="M2070.176,120.875h1154.75c127.916,0,231.598,103.691,231.598,231.597v2309.513
		c0,127.914-103.682,231.617-231.598,231.617H915.442c-127.932,0-231.614-103.703-231.614-231.617V352.472
		c0-127.905,103.682-231.597,231.614-231.597H2070.176z M-4054.818-263.301"/>
	<polygon fill-rule="evenodd" clip-rule="evenodd" fill="#FFFFFF" points="1859.421,290.789 1859.421,2741.17 813.138,1515.94 
		1859.421,290.789 	"/>
	<polygon fill-rule="evenodd" clip-rule="evenodd" fill="#FFFFFF" points="3056.539,290.789 3056.539,2741.17 2010.234,1515.94 
		3056.539,290.789 	"/>
	<g>
		<path d="M1991.986,2995.387v697.424h137.868v174.49h-364.6v-871.914H1991.986z"/>
		<path d="M2411.518,2995.387v871.914h-226.732v-871.914H2411.518z"/>
		<path d="M3041.621,2995.387l-115.391,871.914h-344.395l-131.006-871.914h239.117c27.786,240.172,47.629,443.387,59.5,609.639
			c11.727-168.006,24.154-317.186,37.319-447.494l15.737-162.145H3041.621z"/>
		<path d="M3079.857,2995.387h378.06v174.49h-151.33v165.336h141.64v165.871h-141.64v191.727H3473v174.49h-393.143V2995.387z"/>
	</g>
	<g>
		<path fill="#F7A61E" d="M1669.354,3867.301h-393.14v-174.49h166.409v-191.727h-141.639v-165.871h141.639v-165.336h-151.331
			v-174.49h378.062V3867.301z"/>
		<path fill="#F7A61E" d="M1211.048,3867.301H984.319v-393.145c-31.239,0-50.525,5.584-57.904,16.697
			c-7.342,11.127-11.029,40.031-11.029,86.705v289.742H704.811v-229.963c0-70.35,1.874-113.355,5.666-128.992
			c3.75-15.596,13.362-32.75,28.802-51.422c15.438-18.67,45.598-33.57,90.478-44.699c-49.548-4.648-82.739-18.65-99.632-42.008
			c-16.875-23.334-25.313-68.934-25.313-136.789c0-74.324,11.927-128.436,35.824-162.385c23.875-33.908,54.731-55.012,92.63-63.271
			c37.877-8.256,110.303-12.385,217.295-12.385h160.488V3867.301z M930.204,3157.49c-9.893,8.615-14.818,26.746-14.818,54.395
			v47.928c0,38.42,5.123,61.119,15.335,68.137c10.254,6.982,28.105,10.494,53.598,10.494v-193.877
			C958.129,3144.566,940.077,3148.873,930.204,3157.49z"/>
	</g>
</g>
</svg>
